<mxfile host="app.diagrams.net" modified="2023-11-19T12:55:03.185Z" agent="Mozilla/5.0 (X11; Linux x86_64) AppleWebKit/537.36 (KHTML, like Gecko) Chrome/119.0.0.0 Safari/537.36" etag="fVYnHYwXazKqQZS2exG0" version="22.1.3" type="github">
  <diagram name="Página-1" id="qK_nW6kyc0rH6bnKZ4om">
    <mxGraphModel dx="1951" dy="741" grid="1" gridSize="10" guides="1" tooltips="1" connect="1" arrows="1" fold="1" page="1" pageScale="1" pageWidth="827" pageHeight="1169" math="0" shadow="0">
      <root>
        <mxCell id="0" />
        <mxCell id="1" parent="0" />
        <mxCell id="ohdJqL2VQyYDsmmc2hHo-1" value="" style="rounded=0;whiteSpace=wrap;html=1;container=1;" parent="1" vertex="1">
          <mxGeometry x="-20" width="1320" height="560" as="geometry" />
        </mxCell>
        <mxCell id="ohdJqL2VQyYDsmmc2hHo-3" value="Arquitetura Time 3 Devops - Projeto AutoStream" style="text;strokeColor=none;align=center;fillColor=none;html=1;verticalAlign=middle;whiteSpace=wrap;rounded=0;fontStyle=1;fontSize=17;" parent="1" vertex="1">
          <mxGeometry x="380" y="10" width="370" height="30" as="geometry" />
        </mxCell>
        <mxCell id="UTUfXBOcAtLfI9LuBAGo-34" value="" style="group" parent="1" vertex="1" connectable="0">
          <mxGeometry x="40" y="90" width="170" height="150" as="geometry" />
        </mxCell>
        <mxCell id="ohdJqL2VQyYDsmmc2hHo-4" value="" style="rounded=0;whiteSpace=wrap;html=1;" parent="UTUfXBOcAtLfI9LuBAGo-34" vertex="1">
          <mxGeometry width="170" height="150" as="geometry" />
        </mxCell>
        <mxCell id="ohdJqL2VQyYDsmmc2hHo-5" value="Streaming do Veículo" style="text;strokeColor=none;align=center;fillColor=none;html=1;verticalAlign=middle;whiteSpace=wrap;rounded=0;fontStyle=1" parent="UTUfXBOcAtLfI9LuBAGo-34" vertex="1">
          <mxGeometry x="10" width="160" height="30" as="geometry" />
        </mxCell>
        <mxCell id="ohdJqL2VQyYDsmmc2hHo-6" value="" style="image;aspect=fixed;html=1;points=[];align=center;fontSize=12;image=img/lib/azure2/other/Connected_Vehicle_Platform.svg;" parent="UTUfXBOcAtLfI9LuBAGo-34" vertex="1">
          <mxGeometry x="65.38" y="30" width="39.23" height="30" as="geometry" />
        </mxCell>
        <mxCell id="ohdJqL2VQyYDsmmc2hHo-9" value="" style="group;" parent="UTUfXBOcAtLfI9LuBAGo-34" vertex="1" connectable="0">
          <mxGeometry x="4.609999999999999" y="80" width="160" height="40" as="geometry" />
        </mxCell>
        <mxCell id="ohdJqL2VQyYDsmmc2hHo-7" value="" style="rounded=0;whiteSpace=wrap;html=1;" parent="ohdJqL2VQyYDsmmc2hHo-9" vertex="1">
          <mxGeometry width="160" height="40" as="geometry" />
        </mxCell>
        <mxCell id="ohdJqL2VQyYDsmmc2hHo-8" value="Sensores - km, rpm, localização" style="text;align=center;html=1;verticalAlign=middle;whiteSpace=wrap;rounded=0;fontStyle=1" parent="ohdJqL2VQyYDsmmc2hHo-9" vertex="1">
          <mxGeometry x="17.08" y="8" width="122.92" height="24" as="geometry" />
        </mxCell>
        <mxCell id="UTUfXBOcAtLfI9LuBAGo-37" value="" style="group" parent="1" vertex="1" connectable="0">
          <mxGeometry x="470" y="80" width="170" height="150" as="geometry" />
        </mxCell>
        <mxCell id="UTUfXBOcAtLfI9LuBAGo-1" value="" style="rounded=0;whiteSpace=wrap;html=1;container=1;" parent="UTUfXBOcAtLfI9LuBAGo-37" vertex="1">
          <mxGeometry width="170" height="150" as="geometry" />
        </mxCell>
        <mxCell id="UTUfXBOcAtLfI9LuBAGo-2" value="Bancos de dados" style="text;strokeColor=none;align=center;fillColor=none;html=1;verticalAlign=middle;whiteSpace=wrap;rounded=0;fontStyle=1" parent="UTUfXBOcAtLfI9LuBAGo-37" vertex="1">
          <mxGeometry x="10" width="160" height="30" as="geometry" />
        </mxCell>
        <mxCell id="UTUfXBOcAtLfI9LuBAGo-3" value="" style="group;" parent="UTUfXBOcAtLfI9LuBAGo-37" vertex="1" connectable="0">
          <mxGeometry x="10" y="90" width="150" height="60" as="geometry" />
        </mxCell>
        <mxCell id="UTUfXBOcAtLfI9LuBAGo-6" value="" style="group" parent="UTUfXBOcAtLfI9LuBAGo-3" vertex="1" connectable="0">
          <mxGeometry width="70" height="51.42857142857143" as="geometry" />
        </mxCell>
        <mxCell id="UTUfXBOcAtLfI9LuBAGo-13" value="" style="group" parent="UTUfXBOcAtLfI9LuBAGo-6" vertex="1" connectable="0">
          <mxGeometry width="70" height="51.42857142857143" as="geometry" />
        </mxCell>
        <mxCell id="UTUfXBOcAtLfI9LuBAGo-4" value="" style="rounded=0;whiteSpace=wrap;html=1;" parent="UTUfXBOcAtLfI9LuBAGo-13" vertex="1">
          <mxGeometry width="70" height="51.42857142857143" as="geometry" />
        </mxCell>
        <mxCell id="UTUfXBOcAtLfI9LuBAGo-5" value="Postgres" style="text;align=center;html=1;verticalAlign=middle;whiteSpace=wrap;rounded=0;fontStyle=1" parent="UTUfXBOcAtLfI9LuBAGo-13" vertex="1">
          <mxGeometry y="15.428571428571429" width="70" height="20.57142857142857" as="geometry" />
        </mxCell>
        <mxCell id="UTUfXBOcAtLfI9LuBAGo-16" value="" style="rounded=0;whiteSpace=wrap;html=1;" parent="UTUfXBOcAtLfI9LuBAGo-3" vertex="1">
          <mxGeometry x="80" width="70" height="51.42857142857143" as="geometry" />
        </mxCell>
        <mxCell id="UTUfXBOcAtLfI9LuBAGo-17" value="Azure Cosmos DB" style="text;align=center;html=1;verticalAlign=middle;whiteSpace=wrap;rounded=0;fontStyle=1" parent="UTUfXBOcAtLfI9LuBAGo-3" vertex="1">
          <mxGeometry x="80" y="15.428571428571416" width="70" height="20.57142857142857" as="geometry" />
        </mxCell>
        <mxCell id="UTUfXBOcAtLfI9LuBAGo-18" value="" style="image;aspect=fixed;html=1;points=[];align=center;fontSize=12;image=img/lib/azure2/databases/Azure_Database_PostgreSQL_Server.svg;" parent="UTUfXBOcAtLfI9LuBAGo-37" vertex="1">
          <mxGeometry x="30" y="30" width="33" height="44" as="geometry" />
        </mxCell>
        <mxCell id="UTUfXBOcAtLfI9LuBAGo-19" value="" style="verticalLabelPosition=bottom;html=1;verticalAlign=top;align=center;strokeColor=none;fillColor=#00BEF2;shape=mxgraph.azure.sql_database_sql_azure;" parent="UTUfXBOcAtLfI9LuBAGo-37" vertex="1">
          <mxGeometry x="113" y="30" width="47.5" height="50" as="geometry" />
        </mxCell>
        <mxCell id="iz-g9hyDzr3Je7YMK9uq-2" value="" style="group" vertex="1" connectable="0" parent="1">
          <mxGeometry x="254.54" y="46.86" width="125.46" height="103.14" as="geometry" />
        </mxCell>
        <mxCell id="UTUfXBOcAtLfI9LuBAGo-53" value="Azure Sphere" style="text;strokeColor=none;align=center;fillColor=none;html=1;verticalAlign=middle;whiteSpace=wrap;rounded=0;fontStyle=1;fontSize=17;" parent="iz-g9hyDzr3Je7YMK9uq-2" vertex="1">
          <mxGeometry width="125.46000000000001" height="51.27771701302575" as="geometry" />
        </mxCell>
        <mxCell id="iz-g9hyDzr3Je7YMK9uq-1" value="" style="image;aspect=fixed;html=1;points=[];align=center;fontSize=12;image=img/lib/azure2/other/Azure_Sphere.svg;" vertex="1" parent="iz-g9hyDzr3Je7YMK9uq-2">
          <mxGeometry x="37.07342999999998" y="51.27771701302576" width="48.26848193742472" height="49.73384538662527" as="geometry" />
        </mxCell>
        <mxCell id="iz-g9hyDzr3Je7YMK9uq-3" value="" style="edgeStyle=orthogonalEdgeStyle;rounded=0;orthogonalLoop=1;jettySize=auto;html=1;" edge="1" parent="1" source="ohdJqL2VQyYDsmmc2hHo-5" target="iz-g9hyDzr3Je7YMK9uq-1">
          <mxGeometry relative="1" as="geometry" />
        </mxCell>
        <mxCell id="iz-g9hyDzr3Je7YMK9uq-7" value="" style="group" vertex="1" connectable="0" parent="1">
          <mxGeometry x="272.27" y="280" width="90" height="85" as="geometry" />
        </mxCell>
        <mxCell id="iz-g9hyDzr3Je7YMK9uq-5" value="" style="image;sketch=0;aspect=fixed;html=1;points=[];align=center;fontSize=12;image=img/lib/mscae/Azure_IoT_Hub_Security.svg;" vertex="1" parent="iz-g9hyDzr3Je7YMK9uq-7">
          <mxGeometry x="26.5" y="35" width="37" height="50" as="geometry" />
        </mxCell>
        <mxCell id="iz-g9hyDzr3Je7YMK9uq-6" value="&lt;font style=&quot;font-size: 17px;&quot;&gt;Hub IoT Azure&lt;/font&gt;" style="text;strokeColor=none;align=center;fillColor=none;html=1;verticalAlign=middle;whiteSpace=wrap;rounded=0;spacing=3;fontStyle=1" vertex="1" parent="iz-g9hyDzr3Je7YMK9uq-7">
          <mxGeometry width="90" height="30" as="geometry" />
        </mxCell>
        <mxCell id="iz-g9hyDzr3Je7YMK9uq-9" value="" style="edgeStyle=none;rounded=0;orthogonalLoop=1;jettySize=auto;html=1;" edge="1" parent="1" source="iz-g9hyDzr3Je7YMK9uq-1" target="iz-g9hyDzr3Je7YMK9uq-6">
          <mxGeometry relative="1" as="geometry" />
        </mxCell>
        <mxCell id="iz-g9hyDzr3Je7YMK9uq-14" value="" style="group" vertex="1" connectable="0" parent="1">
          <mxGeometry x="531" y="330" width="68" height="108" as="geometry" />
        </mxCell>
        <mxCell id="iz-g9hyDzr3Je7YMK9uq-10" value="" style="image;aspect=fixed;html=1;points=[];align=center;fontSize=12;image=img/lib/azure2/analytics/Stream_Analytics_Jobs.svg;" vertex="1" parent="iz-g9hyDzr3Je7YMK9uq-14">
          <mxGeometry y="50" width="68" height="57.99999999999999" as="geometry" />
        </mxCell>
        <mxCell id="iz-g9hyDzr3Je7YMK9uq-11" value="&lt;b&gt;&lt;font style=&quot;font-size: 14px;&quot;&gt;Azure Stream Analytics&lt;/font&gt;&lt;/b&gt;" style="text;strokeColor=none;align=center;fillColor=none;html=1;verticalAlign=middle;whiteSpace=wrap;rounded=0;" vertex="1" parent="iz-g9hyDzr3Je7YMK9uq-14">
          <mxGeometry x="4" width="60" height="30" as="geometry" />
        </mxCell>
        <mxCell id="iz-g9hyDzr3Je7YMK9uq-12" value="" style="edgeStyle=none;rounded=0;orthogonalLoop=1;jettySize=auto;html=1;" edge="1" parent="iz-g9hyDzr3Je7YMK9uq-14" source="iz-g9hyDzr3Je7YMK9uq-10" target="iz-g9hyDzr3Je7YMK9uq-11">
          <mxGeometry relative="1" as="geometry" />
        </mxCell>
        <mxCell id="iz-g9hyDzr3Je7YMK9uq-15" value="" style="shape=singleArrow;whiteSpace=wrap;html=1;arrowWidth=0.4;arrowSize=0.4;verticalAlign=top;labelBackgroundColor=default;sketch=0;" vertex="1" parent="1">
          <mxGeometry x="350" y="388" width="160" height="32" as="geometry" />
        </mxCell>
        <mxCell id="iz-g9hyDzr3Je7YMK9uq-16" value="" style="edgeStyle=none;rounded=0;orthogonalLoop=1;jettySize=auto;html=1;" edge="1" parent="1" source="iz-g9hyDzr3Je7YMK9uq-5" target="iz-g9hyDzr3Je7YMK9uq-15">
          <mxGeometry relative="1" as="geometry" />
        </mxCell>
        <mxCell id="iz-g9hyDzr3Je7YMK9uq-21" value="" style="edgeStyle=none;rounded=0;orthogonalLoop=1;jettySize=auto;html=1;" edge="1" parent="1">
          <mxGeometry relative="1" as="geometry">
            <mxPoint x="560" y="320" as="sourcePoint" />
            <mxPoint x="560" y="240" as="targetPoint" />
          </mxGeometry>
        </mxCell>
        <mxCell id="iz-g9hyDzr3Je7YMK9uq-26" value="" style="group" vertex="1" connectable="0" parent="1">
          <mxGeometry x="760" width="175" height="170" as="geometry" />
        </mxCell>
        <mxCell id="UTUfXBOcAtLfI9LuBAGo-38" value="" style="rounded=0;whiteSpace=wrap;html=1;container=1;" parent="iz-g9hyDzr3Je7YMK9uq-26" vertex="1">
          <mxGeometry x="13.125000000000002" y="25.5" width="148.75" height="127.5" as="geometry" />
        </mxCell>
        <mxCell id="UTUfXBOcAtLfI9LuBAGo-48" value="" style="verticalLabelPosition=bottom;aspect=fixed;html=1;shape=mxgraph.salesforce.web;" parent="UTUfXBOcAtLfI9LuBAGo-38" vertex="1">
          <mxGeometry x="48.12500000000001" y="26.349999999999998" width="46.5" height="36.73500000000001" as="geometry" />
        </mxCell>
        <mxCell id="UTUfXBOcAtLfI9LuBAGo-39" value="Aplicação&amp;nbsp;" style="text;strokeColor=none;align=center;fillColor=none;html=1;verticalAlign=middle;whiteSpace=wrap;rounded=0;fontStyle=1" parent="iz-g9hyDzr3Je7YMK9uq-26" vertex="1">
          <mxGeometry x="21.875000000000004" y="25.5" width="140" height="25.5" as="geometry" />
        </mxCell>
        <mxCell id="UTUfXBOcAtLfI9LuBAGo-40" value="" style="group;" parent="iz-g9hyDzr3Je7YMK9uq-26" vertex="1" connectable="0">
          <mxGeometry x="21.875000000000004" y="102" width="131.25" height="51" as="geometry" />
        </mxCell>
        <mxCell id="UTUfXBOcAtLfI9LuBAGo-41" value="" style="group" parent="UTUfXBOcAtLfI9LuBAGo-40" vertex="1" connectable="0">
          <mxGeometry width="61.25000000000001" height="43.714285714285715" as="geometry" />
        </mxCell>
        <mxCell id="UTUfXBOcAtLfI9LuBAGo-42" value="" style="group" parent="UTUfXBOcAtLfI9LuBAGo-41" vertex="1" connectable="0">
          <mxGeometry width="61.25000000000001" height="43.714285714285715" as="geometry" />
        </mxCell>
        <mxCell id="UTUfXBOcAtLfI9LuBAGo-43" value="" style="rounded=0;whiteSpace=wrap;html=1;" parent="UTUfXBOcAtLfI9LuBAGo-42" vertex="1">
          <mxGeometry width="61.25000000000001" height="43.714285714285715" as="geometry" />
        </mxCell>
        <mxCell id="UTUfXBOcAtLfI9LuBAGo-44" value="Web" style="text;align=center;html=1;verticalAlign=middle;whiteSpace=wrap;rounded=0;fontStyle=1" parent="UTUfXBOcAtLfI9LuBAGo-42" vertex="1">
          <mxGeometry y="13.114285714285714" width="61.25000000000001" height="17.485714285714284" as="geometry" />
        </mxCell>
        <mxCell id="UTUfXBOcAtLfI9LuBAGo-45" value="" style="rounded=0;whiteSpace=wrap;html=1;" parent="UTUfXBOcAtLfI9LuBAGo-40" vertex="1">
          <mxGeometry x="70" width="61.25000000000001" height="43.714285714285715" as="geometry" />
        </mxCell>
        <mxCell id="UTUfXBOcAtLfI9LuBAGo-46" value="App" style="text;align=center;html=1;verticalAlign=middle;whiteSpace=wrap;rounded=0;fontStyle=1" parent="UTUfXBOcAtLfI9LuBAGo-40" vertex="1">
          <mxGeometry x="70" y="13.114285714285703" width="61.25000000000001" height="17.485714285714284" as="geometry" />
        </mxCell>
        <mxCell id="UTUfXBOcAtLfI9LuBAGo-49" value="Container&amp;nbsp;" style="swimlane;whiteSpace=wrap;html=1;container=0;" parent="iz-g9hyDzr3Je7YMK9uq-26" vertex="1">
          <mxGeometry width="175.00000000000003" height="170" as="geometry" />
        </mxCell>
        <mxCell id="iz-g9hyDzr3Je7YMK9uq-27" value="" style="group" vertex="1" connectable="0" parent="1">
          <mxGeometry x="760" y="185" width="175" height="170" as="geometry" />
        </mxCell>
        <mxCell id="iz-g9hyDzr3Je7YMK9uq-28" value="" style="rounded=0;whiteSpace=wrap;html=1;container=1;" vertex="1" parent="iz-g9hyDzr3Je7YMK9uq-27">
          <mxGeometry x="13.125000000000002" y="25.5" width="148.75" height="127.5" as="geometry" />
        </mxCell>
        <mxCell id="iz-g9hyDzr3Je7YMK9uq-30" value="Power BI" style="text;strokeColor=none;align=center;fillColor=none;html=1;verticalAlign=middle;whiteSpace=wrap;rounded=0;fontStyle=1" vertex="1" parent="iz-g9hyDzr3Je7YMK9uq-28">
          <mxGeometry x="1.3800000000000026" y="29.5" width="140" height="25.5" as="geometry" />
        </mxCell>
        <mxCell id="iz-g9hyDzr3Je7YMK9uq-31" value="" style="group;" vertex="1" connectable="0" parent="iz-g9hyDzr3Je7YMK9uq-27">
          <mxGeometry x="21.875000000000004" y="102" width="131.25" height="51" as="geometry" />
        </mxCell>
        <mxCell id="iz-g9hyDzr3Je7YMK9uq-32" value="" style="group" vertex="1" connectable="0" parent="iz-g9hyDzr3Je7YMK9uq-31">
          <mxGeometry width="61.25000000000001" height="43.714285714285715" as="geometry" />
        </mxCell>
        <mxCell id="iz-g9hyDzr3Je7YMK9uq-53" value="" style="image;aspect=fixed;html=1;points=[];align=center;fontSize=12;image=img/lib/azure2/general/Service_Bus.svg;" vertex="1" parent="iz-g9hyDzr3Je7YMK9uq-31">
          <mxGeometry x="39.20499999999993" y="-12" width="46.67" height="40" as="geometry" />
        </mxCell>
        <mxCell id="iz-g9hyDzr3Je7YMK9uq-38" value="Análise de dados&amp;nbsp;" style="swimlane;whiteSpace=wrap;html=1;container=0;" vertex="1" parent="iz-g9hyDzr3Je7YMK9uq-27">
          <mxGeometry width="175.00000000000003" height="170" as="geometry" />
        </mxCell>
        <mxCell id="iz-g9hyDzr3Je7YMK9uq-40" value="" style="group" vertex="1" connectable="0" parent="1">
          <mxGeometry x="1010" y="120" width="170" height="170" as="geometry" />
        </mxCell>
        <mxCell id="iz-g9hyDzr3Je7YMK9uq-41" value="" style="rounded=0;whiteSpace=wrap;html=1;container=1;" vertex="1" parent="iz-g9hyDzr3Je7YMK9uq-40">
          <mxGeometry x="12.75" y="21.328413284132843" width="144.49999999999997" height="106.64206642066421" as="geometry" />
        </mxCell>
        <mxCell id="iz-g9hyDzr3Je7YMK9uq-43" value="Monitoramento" style="text;strokeColor=none;align=center;fillColor=none;html=1;verticalAlign=middle;whiteSpace=wrap;rounded=0;fontStyle=1" vertex="1" parent="iz-g9hyDzr3Je7YMK9uq-40">
          <mxGeometry x="21.25" y="21.328413284132843" width="135.99999999999997" height="21.328413284132843" as="geometry" />
        </mxCell>
        <mxCell id="iz-g9hyDzr3Je7YMK9uq-44" value="" style="group;" vertex="1" connectable="0" parent="iz-g9hyDzr3Je7YMK9uq-40">
          <mxGeometry x="21.25" y="85.31365313653137" width="127.49999999999999" height="42.656826568265686" as="geometry" />
        </mxCell>
        <mxCell id="iz-g9hyDzr3Je7YMK9uq-45" value="" style="group" vertex="1" connectable="0" parent="iz-g9hyDzr3Je7YMK9uq-44">
          <mxGeometry width="59.5" height="36.56299420137059" as="geometry" />
        </mxCell>
        <mxCell id="iz-g9hyDzr3Je7YMK9uq-60" value="" style="sketch=0;outlineConnect=0;fontColor=#232F3E;gradientColor=none;fillColor=#8C4FFF;strokeColor=none;dashed=0;verticalLabelPosition=bottom;verticalAlign=top;align=center;html=1;fontSize=12;fontStyle=0;aspect=fixed;pointerEvents=1;shape=mxgraph.aws4.opensearch_observability;" vertex="1" parent="iz-g9hyDzr3Je7YMK9uq-44">
          <mxGeometry x="33.03342857142857" y="-35.12915129151292" width="52.90282902829029" height="52.90282902829029" as="geometry" />
        </mxCell>
        <mxCell id="iz-g9hyDzr3Je7YMK9uq-51" value="Observabilidade" style="swimlane;whiteSpace=wrap;html=1;container=0;" vertex="1" parent="iz-g9hyDzr3Je7YMK9uq-40">
          <mxGeometry width="170" height="170" as="geometry" />
        </mxCell>
        <mxCell id="iz-g9hyDzr3Je7YMK9uq-58" style="edgeStyle=none;rounded=0;orthogonalLoop=1;jettySize=auto;html=1;exitX=1;exitY=0.25;exitDx=0;exitDy=0;" edge="1" parent="1" source="UTUfXBOcAtLfI9LuBAGo-1">
          <mxGeometry relative="1" as="geometry">
            <mxPoint x="760" y="120" as="targetPoint" />
          </mxGeometry>
        </mxCell>
        <mxCell id="iz-g9hyDzr3Je7YMK9uq-59" style="edgeStyle=none;rounded=0;orthogonalLoop=1;jettySize=auto;html=1;exitX=1;exitY=0.75;exitDx=0;exitDy=0;" edge="1" parent="1" source="UTUfXBOcAtLfI9LuBAGo-1">
          <mxGeometry relative="1" as="geometry">
            <mxPoint x="760" y="193" as="targetPoint" />
          </mxGeometry>
        </mxCell>
        <mxCell id="iz-g9hyDzr3Je7YMK9uq-61" value="" style="edgeStyle=none;rounded=0;orthogonalLoop=1;jettySize=auto;html=1;entryX=1;entryY=0.5;entryDx=0;entryDy=0;" edge="1" parent="1" source="iz-g9hyDzr3Je7YMK9uq-51" target="UTUfXBOcAtLfI9LuBAGo-49">
          <mxGeometry relative="1" as="geometry" />
        </mxCell>
      </root>
    </mxGraphModel>
  </diagram>
</mxfile>
